<svg id="visual" viewBox="0 0 900 600" width="900" height="600" xmlns="http://www.w3.org/2000/svg" xmlns:xlink="http://www.w3.org/1999/xlink" version="1.1"><rect x="0" y="0" width="900" height="600" fill="#FFFFFF"></rect><defs><linearGradient id="grad1_0" x1="33.3%" y1="0%" x2="100%" y2="100%"><stop offset="20%" stop-color="#ffffff" stop-opacity="1"></stop><stop offset="80%" stop-color="#ffffff" stop-opacity="1"></stop></linearGradient></defs><defs><linearGradient id="grad2_0" x1="0%" y1="0%" x2="66.7%" y2="100%"><stop offset="20%" stop-color="#ffffff" stop-opacity="1"></stop><stop offset="80%" stop-color="#ffffff" stop-opacity="1"></stop></linearGradient></defs><g transform="translate(900, 0)"><path d="M0 324.5C-45.2 296.6 -90.4 268.6 -141.5 245.1C-192.6 221.5 -249.5 202.4 -281 162.2C-312.5 122.1 -318.5 61.1 -324.5 0L0 0Z" fill="#000000"></path></g><g transform="translate(0, 600)"><path d="M0 -324.5C48.4 -302.1 96.8 -279.7 147.5 -255.5C198.2 -231.2 251.1 -205.1 281 -162.2C310.9 -119.4 317.7 -59.7 324.5 0L0 0Z" fill="#000000"></path></g></svg>