<svg xmlns="http://www.w3.org/2000/svg" version="1.1" xmlns:xlink="http://www.w3.org/1999/xlink" xmlns:svgjs="http://svgjs.com/svgjs" width="1440" height="800" preserveAspectRatio="none" viewBox="0 0 1440 800"><g mask="url(&quot;#SvgjsMask1048&quot;)" fill="none"><rect width="1440" height="800" x="0" y="0" fill="rgba(255, 255, 255, 1)"></rect><path d="M1359 343L995 342" stroke-width="6" stroke="url(#SvgjsLinearGradient1049)" stroke-linecap="round" class="Left"></path><path d="M997 161L99 160" stroke-width="8" stroke="url(#SvgjsLinearGradient1050)" stroke-linecap="round" class="Right"></path><path d="M412 542L-432 541" stroke-width="8" stroke="url(#SvgjsLinearGradient1049)" stroke-linecap="round" class="Left"></path><path d="M891 542L438 541" stroke-width="8" stroke="url(#SvgjsLinearGradient1049)" stroke-linecap="round" class="Left"></path><path d="M572 547L-4 546" stroke-width="10" stroke="url(#SvgjsLinearGradient1050)" stroke-linecap="round" class="Right"></path><path d="M962 797L398 796" stroke-width="10" stroke="url(#SvgjsLinearGradient1049)" stroke-linecap="round" class="Left"></path><path d="M616 229L44 228" stroke-width="6" stroke="url(#SvgjsLinearGradient1050)" stroke-linecap="round" class="Right"></path><path d="M1246 368L690 367" stroke-width="6" stroke="url(#SvgjsLinearGradient1049)" stroke-linecap="round" class="Left"></path><path d="M1070 126L486 125" stroke-width="8" stroke="url(#SvgjsLinearGradient1049)" stroke-linecap="round" class="Left"></path><path d="M1247 181L666 180" stroke-width="8" stroke="url(#SvgjsLinearGradient1049)" stroke-linecap="round" class="Left"></path><path d="M1002 552L1966 551" stroke-width="8" stroke="url(#SvgjsLinearGradient1049)" stroke-linecap="round" class="Left"></path><path d="M1087 614L1922 613" stroke-width="8" stroke="url(#SvgjsLinearGradient1050)" stroke-linecap="round" class="Right"></path><path d="M1033 475L1413 474" stroke-width="8" stroke="url(#SvgjsLinearGradient1049)" stroke-linecap="round" class="Left"></path><path d="M350 626L-429 625" stroke-width="6" stroke="url(#SvgjsLinearGradient1049)" stroke-linecap="round" class="Left"></path><path d="M274 619L-736 618" stroke-width="6" stroke="url(#SvgjsLinearGradient1049)" stroke-linecap="round" class="Left"></path><path d="M1347 200L784 199" stroke-width="6" stroke="url(#SvgjsLinearGradient1049)" stroke-linecap="round" class="Left"></path><path d="M239 723L-248 722" stroke-width="10" stroke="url(#SvgjsLinearGradient1049)" stroke-linecap="round" class="Left"></path><path d="M1122 586L356 585" stroke-width="8" stroke="url(#SvgjsLinearGradient1049)" stroke-linecap="round" class="Left"></path><path d="M1318 166L1858 165" stroke-width="6" stroke="url(#SvgjsLinearGradient1050)" stroke-linecap="round" class="Right"></path><path d="M937 611L358 610" stroke-width="10" stroke="url(#SvgjsLinearGradient1050)" stroke-linecap="round" class="Right"></path></g><defs><mask id="SvgjsMask1048"><rect width="1440" height="800" fill="#ffffff"></rect></mask><linearGradient x1="100%" y1="0%" x2="0%" y2="0%" id="SvgjsLinearGradient1049"><stop stop-color="rgba(12, 12, 12, 0)" offset="0"></stop><stop stop-color="rgba(12, 12, 12, 1)" offset="1"></stop></linearGradient><linearGradient x1="0%" y1="0%" x2="100%" y2="0%" id="SvgjsLinearGradient1050"><stop stop-color="rgba(12, 12, 12, 0)" offset="0"></stop><stop stop-color="rgba(12, 12, 12, 1)" offset="1"></stop></linearGradient></defs></svg>