<svg xmlns="http://www.w3.org/2000/svg" version="1.1" xmlns:xlink="http://www.w3.org/1999/xlink" xmlns:svgjs="http://svgjs.com/svgjs" width="1440" height="800" preserveAspectRatio="none" viewBox="0 0 1440 800"><g mask="url(&quot;#SvgjsMask1015&quot;)" fill="none"><rect width="1440" height="800" x="0" y="0" fill="rgba(0, 0, 0, 1)"></rect><path d="M614 694L613 259" stroke-width="6" stroke="url(#SvgjsLinearGradient1016)" stroke-linecap="round" class="Up"></path><path d="M893 179L892 764" stroke-width="8" stroke="url(#SvgjsLinearGradient1016)" stroke-linecap="round" class="Up"></path><path d="M1361 22L1360 396" stroke-width="10" stroke="url(#SvgjsLinearGradient1017)" stroke-linecap="round" class="Down"></path><path d="M189 700L188 936" stroke-width="8" stroke="url(#SvgjsLinearGradient1016)" stroke-linecap="round" class="Up"></path><path d="M1063 301L1062 860" stroke-width="10" stroke="url(#SvgjsLinearGradient1016)" stroke-linecap="round" class="Up"></path><path d="M845 484L844 1039" stroke-width="8" stroke="url(#SvgjsLinearGradient1016)" stroke-linecap="round" class="Up"></path><path d="M362 766L361 1129" stroke-width="6" stroke="url(#SvgjsLinearGradient1016)" stroke-linecap="round" class="Up"></path><path d="M949 602L948 132" stroke-width="10" stroke="url(#SvgjsLinearGradient1016)" stroke-linecap="round" class="Up"></path><path d="M58 504L57 167" stroke-width="8" stroke="url(#SvgjsLinearGradient1016)" stroke-linecap="round" class="Up"></path><path d="M60 402L59 152" stroke-width="6" stroke="url(#SvgjsLinearGradient1017)" stroke-linecap="round" class="Down"></path><path d="M408 279L407 -302" stroke-width="10" stroke="url(#SvgjsLinearGradient1017)" stroke-linecap="round" class="Down"></path><path d="M4 100L3 -476" stroke-width="8" stroke="url(#SvgjsLinearGradient1017)" stroke-linecap="round" class="Down"></path><path d="M438 534L437 846" stroke-width="10" stroke="url(#SvgjsLinearGradient1017)" stroke-linecap="round" class="Down"></path><path d="M463 189L462 -297" stroke-width="8" stroke="url(#SvgjsLinearGradient1017)" stroke-linecap="round" class="Down"></path><path d="M1189 516L1188 47" stroke-width="6" stroke="url(#SvgjsLinearGradient1017)" stroke-linecap="round" class="Down"></path><path d="M455 618L454 900" stroke-width="10" stroke="url(#SvgjsLinearGradient1017)" stroke-linecap="round" class="Down"></path><path d="M991 59L990 -148" stroke-width="6" stroke="url(#SvgjsLinearGradient1017)" stroke-linecap="round" class="Down"></path><path d="M1397 788L1396 994" stroke-width="6" stroke="url(#SvgjsLinearGradient1017)" stroke-linecap="round" class="Down"></path><path d="M677 480L676 -87" stroke-width="8" stroke="url(#SvgjsLinearGradient1016)" stroke-linecap="round" class="Up"></path><path d="M955 285L954 -59" stroke-width="6" stroke="url(#SvgjsLinearGradient1016)" stroke-linecap="round" class="Up"></path><path d="M1266 95L1265 421" stroke-width="10" stroke="url(#SvgjsLinearGradient1016)" stroke-linecap="round" class="Up"></path><path d="M1290 198L1289 -115" stroke-width="8" stroke="url(#SvgjsLinearGradient1016)" stroke-linecap="round" class="Up"></path><path d="M198 407L197 -9" stroke-width="10" stroke="url(#SvgjsLinearGradient1017)" stroke-linecap="round" class="Down"></path><path d="M1161 181L1160 -395" stroke-width="6" stroke="url(#SvgjsLinearGradient1016)" stroke-linecap="round" class="Up"></path><path d="M354 252L353 -37" stroke-width="8" stroke="url(#SvgjsLinearGradient1016)" stroke-linecap="round" class="Up"></path><path d="M1070 122L1069 676" stroke-width="8" stroke="url(#SvgjsLinearGradient1017)" stroke-linecap="round" class="Down"></path><path d="M850 363L849 684" stroke-width="10" stroke="url(#SvgjsLinearGradient1016)" stroke-linecap="round" class="Up"></path><path d="M363 242L362 748" stroke-width="10" stroke="url(#SvgjsLinearGradient1017)" stroke-linecap="round" class="Down"></path><path d="M1260 747L1259 1078" stroke-width="10" stroke="url(#SvgjsLinearGradient1017)" stroke-linecap="round" class="Down"></path><path d="M239 357L238 147" stroke-width="6" stroke="url(#SvgjsLinearGradient1016)" stroke-linecap="round" class="Up"></path><path d="M1046 155L1045 368" stroke-width="6" stroke="url(#SvgjsLinearGradient1016)" stroke-linecap="round" class="Up"></path><path d="M1389 448L1388 939" stroke-width="8" stroke="url(#SvgjsLinearGradient1016)" stroke-linecap="round" class="Up"></path><path d="M498 531L497 838" stroke-width="8" stroke="url(#SvgjsLinearGradient1016)" stroke-linecap="round" class="Up"></path><path d="M1269 60L1268 604" stroke-width="6" stroke="url(#SvgjsLinearGradient1017)" stroke-linecap="round" class="Down"></path><path d="M1363 788L1362 326" stroke-width="10" stroke="url(#SvgjsLinearGradient1016)" stroke-linecap="round" class="Up"></path><path d="M522 285L521 60" stroke-width="6" stroke="url(#SvgjsLinearGradient1017)" stroke-linecap="round" class="Down"></path></g><defs><mask id="SvgjsMask1015"><rect width="1440" height="800" fill="#ffffff"></rect></mask><linearGradient x1="0%" y1="100%" x2="0%" y2="0%" id="SvgjsLinearGradient1016"><stop stop-color="rgba(255, 255, 255, 0)" offset="0"></stop><stop stop-color="rgba(255, 255, 255, 1)" offset="1"></stop></linearGradient><linearGradient x1="0%" y1="0%" x2="0%" y2="100%" id="SvgjsLinearGradient1017"><stop stop-color="rgba(255, 255, 255, 0)" offset="0"></stop><stop stop-color="rgba(255, 255, 255, 1)" offset="1"></stop></linearGradient></defs></svg>