<svg xmlns="http://www.w3.org/2000/svg" version="1.1" xmlns:xlink="http://www.w3.org/1999/xlink" xmlns:svgjs="http://svgjs.com/svgjs" width="1440" height="800" preserveAspectRatio="none" viewBox="0 0 1440 800"><g mask="url(&quot;#SvgjsMask1116&quot;)" fill="none"><rect width="1440" height="800" x="0" y="0" fill="rgba(255, 255, 255, 1)"></rect><path d="M -150.81340948535205,689 C -6.81,628 281.19,368.8 569.186590514648,384 C 857.19,399.2 1001.19,786 1289.1865905146478,765 C 1577.19,744 1979.02,345.2 2009.1865905146478,279 C 2039.35,212.8 1553.84,403 1440,434" stroke="rgba(0, 0, 0, 1)" stroke-width="2"></path><path d="M -301.5172159547598,245 C -157.52,294 130.48,532.8 418.4827840452402,490 C 706.48,447.2 850.48,45.2 1138.4827840452401,31 C 1426.48,16.8 1798.18,351 1858.4827840452401,419 C 1918.79,487 1523.7,380.6 1440,371" stroke="rgba(0, 0, 0, 1)" stroke-width="2"></path><path d="M -752.920730219796,301 C -608.92,397.2 -320.92,775.6 -32.920730219795985,782 C 255.08,788.4 399.08,334 687.079269780204,333 C 975.08,332 1256.5,819.2 1407.079269780204,777 C 1557.66,734.8 1433.42,253 1440,122" stroke="rgba(0, 0, 0, 1)" stroke-width="2"></path><path d="M -668.6764720670446,589 C -524.68,490.6 -236.68,123 51.32352793295537,97 C 339.32,71 483.32,412.8 771.3235279329554,459 C 1059.32,505.2 1357.59,317.8 1491.3235279329554,328 C 1625.06,338.2 1450.26,473.6 1440,510" stroke="rgba(0, 0, 0, 1)" stroke-width="2"></path><path d="M -1224.8069559460162,63 C -1080.81,161.2 -792.81,542.8 -504.8069559460161,554 C -216.81,565.2 -72.81,148.4 215.1930440539839,119 C 503.19,89.6 690.23,400.2 935.1930440539838,407 C 1180.15,413.8 1339.04,203.8 1440,153" stroke="rgba(0, 0, 0, 1)" stroke-width="2"></path><path d="M -908.3505567156525,219 C -764.35,307.6 -476.35,699 -188.3505567156525,662 C 99.65,625 243.65,32.6 531.6494432843475,34 C 819.65,35.4 1069.98,625 1251.6494432843474,669 C 1433.32,713 1402.33,337 1440,254" stroke="rgba(0, 0, 0, 1)" stroke-width="2"></path></g><defs><mask id="SvgjsMask1116"><rect width="1440" height="800" fill="#ffffff"></rect></mask></defs></svg>