<svg xmlns="http://www.w3.org/2000/svg" version="1.1" xmlns:xlink="http://www.w3.org/1999/xlink" xmlns:svgjs="http://svgjs.dev/svgjs" viewBox="0 0 800 800" opacity="0.76"><g stroke-width="2" stroke="hsl(32, 0%, 0%)" fill="none" stroke-linecap="round"><path d="M-301.2500009417531 409.72825836962056C-264.72656204849454 398.63426380579324 -198.984372040629 355.6553070881511 -125.9374942541117 356.47708446324947C-52.89061646759444 357.29886183834776 -23.671865352987652 416.54901058293655 49.375012433529605 413.67278977009244C122.42189022004686 410.7965689572484 151.64064133465376 339.7950037487536 224.68751912117102 342.6712245615977C297.7343969076883 345.5474453744418 326.9531480222953 419.6717646083102 400.00002580881255 427.4786496717442C473.0469035953297 435.28553473517826 502.2656547099365 373.98094255284366 575.3125324964537 380.14427286608105C648.3594102829711 386.30760317931845 677.5781613975778 463.22596548852107 750.6250391840952 457.06263517528373C823.6719169706125 450.8993048620463 852.8906680852192 353.02561948783654 925.9375458717366 350.56028736254154C998.984423658254 348.0949552372466 1064.7266136661196 425.5063839715083 1101.250052559378 445.2290409738679 " transform="rotate(189.75, 400, 400)"></path><path d="M-280.00000114440894 409.43344555311097C-244.58333312670362 398.675632642733 -180.833330694834 356.9990685528982 -109.99999465942335 357.7959435832966C-39.16665862401271 358.59281861369493 -10.833324209848513 416.0475083054174 60.00001182556218 413.2584456990231C130.83334786097294 410.46938309262885 159.16668227513708 341.6193804662097 230.00001831054783 344.408443072604C300.8333543459586 347.19750567899825 329.16668876012284 419.07563342093124 400.0000247955335 426.64594620971576C470.8333608309441 434.2162589985003 499.1666952451084 374.76938173078184 570.0000312805189 380.74594445876966C640.8333673159295 386.7225071867574 669.1667017300938 461.31001003204483 740.0000377655047 455.3334473040571C810.8333738009153 449.3568845760693 839.1667082150796 354.44906845562343 910.0000442504902 352.05844336442834C980.8333802859008 349.6678182732332 1044.5833827177705 424.73344613675965 1080.000050735476 443.85844686632055 " transform="rotate(184, 400, 400)"></path><path d="M-258.75000134706477 409.1386632541795C-224.4401042049127 398.71703199725084 -162.68228934903902 358.3428605352234 -94.06249506473495 359.11483322092187C-25.44270078043087 359.8868059066203 2.0052169332907397 415.5460365454764 70.62501121759482 412.84413214553194C139.2448055018989 410.14222774558743 166.6927232156205 343.4437877012439 235.31251749992464 346.1456921011884C303.9323117842288 348.84759650113284 331.3802294979505 418.4795327511304 400.0000237822545 425.81327326526537C468.61981806655854 433.14701377940037 496.06773578028015 375.5578514262982 564.687530064584 381.3476465690363C633.3073243488883 387.1374417117745 660.7552420626098 459.3940850931467 729.3750363469139 453.60428995040854C797.9948306312181 447.81449480767037 825.4427483449397 355.87254794098845 894.0625426292438 353.5566298838932C962.6823369135479 351.24071182679796 1024.4401517694216 423.9605388195892 1058.7500489115737 442.4878832763513 " transform="rotate(178.25, 400, 400)"></path><path d="M-237.50000154972054 408.84387332585356C-204.29687528312178 398.7584237223742 -144.53124800324406 359.6866448881541 -78.12499547004654 360.43371522915254C-11.718742936849026 361.18078557015104 14.843758076429879 415.04455715614085 81.2500106096274 412.42981096264623C147.6562631428249 409.81506476915155 174.21876415610393 345.2681873068836 240.62501668930145 347.8829335003782C307.03126922249896 350.4976796938729 333.59377023577804 417.88342445193507 400.00002276897544 424.9805926914205C466.40627530217296 432.077760930906 492.9687763154518 376.34631349242 559.3750288486493 381.9493410499085C625.7812813818468 387.55236860739706 652.3437823951258 457.47815252485407 718.7500349283232 451.87512496736554C785.1562874615208 446.272097409877 811.7187884747998 357.296019796959 878.1250410079974 355.05480877396354C944.531293541195 352.81359775096814 1004.296920821073 423.1876238730242 1037.5000470876714 441.11731205698754 " transform="rotate(172.5, 400, 400)"></path><path d="M-216.25000175237633 408.5490681387385C-184.15364636133089 398.79980018870845 -126.38020665744907 361.0304139822957 -62.18749587535814 361.7525819785942C2.0052149067327605 362.47474997489275 27.68229921956913 414.5430625080162 91.87501000166003 412.0154745209714C156.06772078375099 409.4878865339266 181.7448050965873 347.09257165373424 245.93751587867814 349.62015964077904C310.13022666076927 352.1477476278239 335.8073109736056 417.2873008939506 400.0000217556965 424.14789685878657C464.1927325377874 431.00849282362253 489.8698168506237 377.13476029975277 554.0625276327146 382.55102027199166C618.2552384148056 387.9672802442306 643.9323227276418 455.56220469777236 708.1250335097328 450.1459447255334C772.3177442918236 444.72968475329446 797.9948286046601 358.71947639414043 862.187539386751 356.5529724052449C926.3802501688419 354.3864684163493 984.1536898727238 422.4146936676701 1016.2500452637692 439.7467255788347 " transform="rotate(166.75, 400, 400)"></path><path d="M-195.00000195503213 408.2542782104125C-164.01041743953996 398.8411919138318 -108.22916531165407 362.37419833522637 -46.249996280669734 363.07146398682494C15.729172750314603 363.7687296384235 40.52084036270827 414.0415831186807 102.50000939369261 411.6011533380857C164.47917842467695 409.16072355749066 189.2708460370706 348.9169712593739 251.25001506805506 351.3574010399689C313.22918409903946 353.7978308205639 338.02085171143324 416.6911925947553 400.0000207424174 423.3152162849417C461.9791897734017 429.93923997512815 486.77085738579547 377.92322236587455 548.7500264167799 383.15271475286386C610.7291954477641 388.38220713985316 635.5208630601577 453.64627212947966 697.5000320911422 448.41677974249035C759.4792011221266 443.1872873555011 784.2708687345203 360.1429482501109 846.2500377655047 358.0511512953152C908.229206796489 355.9593543405195 964.0104589243749 421.64177872110514 995.0000434398671 438.3761543594709 " transform="rotate(161, 400, 400)"></path><path d="M-173.75000215768793 407.95949209678383C-143.86718851774907 398.8825874536524 -90.0781239658591 363.71798650285433 -30.31249668598133 364.39034980975293C29.45313059389639 365.06271311665154 53.35938150584741 413.54010754404237 113.12500878572524 411.1868359698972C172.89063606560302 408.83356439575203 196.79688697755404 350.7413746797109 256.56251425743187 353.094646253856C316.32814153730965 355.4479178280012 340.2343924492608 416.09508811025717 400.00001972913844 422.4825395257941C459.7656470090162 428.869990941331 483.67189792096724 378.71168824669365 543.437525200845 383.7544130484333C603.2031524807228 388.797137850173 627.1094033926737 451.7303433758843 686.8750306725517 446.6876185741446C746.6406579524294 441.6448937724049 770.5469088643804 361.56642392077873 830.3125361442583 359.5493340000828C890.0781634241359 357.53224407938694 943.867227976026 420.8688675892374 973.7500416159648 437.0055869548044 " transform="rotate(155.25, 400, 400)"></path><path d="M-152.50000236034373 407.66467928027424C-123.72395959595815 398.9239562905921 -71.92708262006411 365.0617479676014 -14.374997091292954 365.70920892980007C43.17708843747823 366.35666989199876 66.1979226489866 413.03860526652323 123.75000817775782 410.77249189882787C181.30209370652904 408.5063785311325 204.32292791803746 352.56575139716693 261.8750134468086 354.8318647648623C319.42709897557984 357.09797813255767 342.44793318708844 415.4989569228782 400.0000187158595 421.64983606376563C457.55210424463064 427.80071520465305 480.572938456139 379.50012742463184 538.1250239849102 384.3560846411219C595.6771095136813 389.212041857612 618.6979437251898 449.81438791940803 676.250029253961 444.95843070291795C733.8021147827322 440.10247348642787 756.8229489942406 362.9898728885656 814.3750345230119 361.0474900019696C871.927120051783 359.1051071153736 923.7239970276771 420.0959297544888 952.5000397920626 435.634992847257 " transform="rotate(149.5, 400, 400)"></path><path d="M-131.25000256299955 407.3698969813428C-103.58073067416724 398.96535564511 -53.77604127426912 366.4055399499266 1.56250250339545 367.02809856742533C56.901046281060076 367.65065718492406 79.0364637921258 412.5371335065822 134.3750075697904 410.3581783453367C189.71355134745505 408.17922318409114 211.84896885852078 354.3901586322012 267.18751263618543 356.5691137934467C322.52605641385003 358.74806895469226 344.661473924916 414.9028562530774 400.0000177025805 420.8171631193153C455.33856148024506 426.7314699855532 477.4739789913108 380.2885971201482 532.8125227689753 384.95778675138865C588.15106654664 389.6269763826291 610.2864840577058 447.89846298050986 665.6250278353704 443.2292733492694C720.963571613035 438.560083718029 743.0989891241007 364.41335237393065 798.4375329017654 362.5456765214345C853.7760766794299 360.6780006689383 903.5807660793282 419.32302243731834 931.2500379681605 434.26442925728776 " transform="rotate(143.75, 400, 400)"></path><path d="M-110.00000276565534 407.07509560892504C-83.43750175237633 399.0067359261415 -35.62499992847415 367.74931285876545 17.500002098083854 368.34696913156426C70.62500412464186 368.944625404363 91.875004935265 412.0356426731549 145.00000696182303 409.94384571835917C198.12500898838107 407.85204876356346 219.3750097990042 356.21454679374904 272.5000118255622 358.3063437485448C325.6250138521202 360.3981407033405 346.8750146627435 414.30673650979026 400.00001668930145 419.98447110137863C453.1250187158595 425.662205692967 474.3750195264827 381.0770477421782 527.5000215530406 385.55946978816905C580.6250235795986 390.04189183415986 601.8750243902217 445.9825189681254 655.0000264167799 441.5000969221346C708.1250284433378 437.01767487614376 729.375029253961 365.83681278580934 782.5000312805189 364.04384396741307C835.625033307077 362.2508751490167 883.4375351309793 418.55009604666157 910.0000361442583 432.8938465938322 " transform="rotate(138, 400, 400)"></path><path d="M-88.75000296831114 406.78029423650725C-63.29427283058543 399.04811620717305 -17.47395858267916 369.09308576760435 33.43750169277226 369.66583969570314C84.34896196822365 370.238593623802 104.71354607840419 411.53415183972754 155.6250063538556 409.5295130913816C206.53646662930709 407.5248743430357 226.90105073948763 358.03893495529695 277.81251101493905 360.04357370364283C328.7239712903905 362.0482124519888 349.08855540057107 413.71061676650305 400.0000156760225 419.15177908344197C450.9114759514739 424.5929414003808 471.27606006165445 381.8654983642082 522.1875203371058 386.1611528249494C573.0989806125572 390.4568072856906 593.4635647227377 444.066574955741 644.3750249981892 439.77092049499976C695.2864852736408 435.47526603425854 715.6510693838211 367.2602731976881 766.5625296592726 365.5420114133916C817.4739899347242 363.8237496290951 863.2943041826304 417.77716965600473 888.750034320356 431.52326393037663 " transform="rotate(132.25, 400, 400)"></path><path d="M-67.50000317096693 406.48549286408945C-43.15104390879452 399.0894964882046 0.677082763115834 370.4368586764432 49.37500128746066 370.9847102598421C98.07291981180549 371.53256184324096 117.55208722154339 411.03266100630015 166.2500057458882 409.1151804644041C214.9479242702331 407.19769992250804 234.427091679971 359.86332311684487 283.12501020431586 361.7808036587409C331.8229287286607 363.698284200637 351.30209613839867 413.1144970232159 400.0000146627435 418.31908706550524C448.6979331870883 423.5236771077946 468.1771005968261 382.6539489862382 516.8750191211709 386.7628358617298C565.5729376455158 390.87172273722143 585.0521050552537 442.15063094335653 633.7500235795986 438.0417440678649C682.4479421039435 433.9328571923733 701.9271095136813 368.6837336095668 750.6250280380262 367.04017885937014C799.3229465623712 365.3966241091735 843.1510732342814 417.00424326534795 867.5000324964539 430.15268126692104 " transform="rotate(126.5, 400, 400)"></path><path d="M-46.25000337362273 406.1907029357635C-23.007814987003613 399.1308882133279 18.8281241089108 371.7806430293739 65.31250088214904 372.3035922680728C111.7968776553873 372.8265415067717 130.39062836468258 410.5311816169646 176.87500513792082 408.7008592815184C223.35938191115912 406.8705369460721 241.95313262045437 361.6877227224845 288.43750939369266 363.5180450579308C334.9218861669309 365.34836739337703 353.5156368762262 412.51838872402055 400.00001364946456 417.4864064916604C446.48439042270275 422.4544242593002 465.0781411319979 383.44241105236 511.5625179052362 387.364530342602C558.0468946784745 391.286649632844 576.6406453877697 440.2346983750639 623.125022161008 436.3125790848219C669.6093989342463 432.3904597945799 688.2031496435416 370.1072054655373 734.6875264167799 368.53835774944054C781.1719031900182 366.96951003334374 823.0078422859326 416.23132831878297 846.2500306725517 428.7821100475573 " transform="rotate(120.75, 400, 400)"></path><path d="M-25.00000357627853 405.8959130074375C-2.8645860652127055 399.17227993845125 36.97916545470579 373.12442738230453 81.25000047683747 373.62247427630354C125.52083549896912 374.12052117030254 143.22916950782178 410.02970222762906 187.5000045299534 408.2865380986326C231.77083955208514 406.5433739696362 249.47917356093774 363.51212232812424 293.7500085830695 365.25528645712063C338.02084360520115 366.9984505861171 355.72917761405387 411.9222804248252 400.0000126361855 416.6537259178155C444.27084765831717 421.3851714108058 461.97918166716977 384.23087311848184 506.25001668930133 387.9662248234742C550.5208517114331 391.70157652846655 568.2291857202857 438.3187658067712 612.5000207424174 434.5834141017788C656.7708557645491 430.8480623967865 674.4791897734017 371.5306773215078 718.7500247955334 370.03653663951087C763.0208598176652 368.5423959575139 802.8646113375837 415.45841337221793 825.0000288486494 427.4115388281935 " transform="rotate(115, 400, 400)"></path><path d="M-3.7500037789343423 405.60111354236835C17.278642856578216 399.2136621268314 55.13020680050079 374.46820219849207 97.18750007152585 374.9413467477911C139.24479334255096 375.41449129709014 156.06771065096095 409.52821330155035 198.12500392198604 407.8722073790037C240.1822971930111 406.2162014564571 257.00521450142116 365.3365123970207 299.0625077724462 366.99251831956735C341.1198010434714 368.648524242114 357.9427183518814 411.3261625888867 400.00001162290647 415.8210358072275C442.0573048939316 420.31590902556826 458.88022220234154 385.01932564786046 500.9375154733666 388.5679097676032C542.9948087443917 392.11649388734594 559.8177260528017 436.4028237017354 601.8750193238268 432.8542395819926C643.932312594852 429.3056554622499 660.7552299032619 372.95413964073515 702.812523174287 371.53470599283804C744.8698164453122 370.115272344941 782.7213803892347 414.6854888889098 803.7500270247473 426.0409580720866 " transform="rotate(109.25, 400, 400)"></path><path d="M17.50000364780439 405.3063236140424C37.42187940776364 399.25505385195476 73.28125577569028 375.8119865514227 113.12500729560878 376.26022875602183C152.96875881552728 376.7084709606209 168.90625942349467 409.0267339122148 208.75001094341314 407.457886196118C248.5937624633317 405.8890384800212 264.531263071299 367.16091200266044 304.3750145912176 368.72975971875724C344.2187661111361 370.29860743485403 360.15626671910354 410.73005428969134 400.000018239022 414.9883552333826C439.8437697589405 419.2466561770739 455.78127036690785 385.8077877139823 495.6250218868263 389.1696042484754C535.4687734067448 392.53142078296855 551.4062740147123 434.48689113344267 591.2500255346307 431.1250745989496C631.0937770545493 427.76325806445647 647.0312776625167 374.37761149670564 686.8750291824352 373.03288488290843C726.7187807023537 371.68815826911117 762.5781570702804 413.9125739423448 782.5000328302395 424.6703868527228 " transform="rotate(103.5, 400, 400)"></path><path d="M38.75000344514859 405.0115260563219C57.56510832955456 399.29643794768356 91.43229712148528 377.1557632749589 129.0625068902972 377.579103134858C166.6927166591091 378.00244299475713 181.74480056663384 408.5252468934847 219.37501033544572 407.0435573838377C257.0052201042577 405.56186787419074 272.05730401178243 368.98530397890556 309.6875137805944 370.46699348855253C347.3177235494063 371.9486829981995 362.36980745693114 410.1339383611014 400.000017225743 414.1556670301432C437.63022699455485 418.17739569918496 452.6823109020796 386.59624215070954 490.31252067089144 389.77129109995303C527.9427304397035 392.9463400491966 542.9948143472282 432.5709509357555 580.6250241160401 429.395901986512C618.255233884852 426.2208530372685 633.3073177923768 375.80107572328166 670.9375275611887 374.53105614358424C708.5677373300007 373.2610365638868 742.4349261219314 413.13965136638524 761.2500310063374 423.2998080039645 " transform="rotate(97.75, 400, 400)"></path><path d="M60.000003242492795 404.7167265912527C77.70833725134545 399.3378201360637 109.58333846728027 378.49953809114635 145.0000064849856 378.89797560634554C180.4166745026909 379.29641312154473 194.583341709773 408.02375796740597 230.00000972747836 406.62922666420883C265.41667774518373 405.2346953610117 279.5833449522658 370.8096940478021 315.0000129699712 372.20422535099925C350.41668098767656 373.5987566541964 364.5833481947587 409.5378205251629 400.000016212464 413.3229769195551C435.4166842301693 417.1081333139474 449.58335143725145 387.3846946800882 485.0000194549567 390.37297604408207C520.416687472662 393.36125740807597 534.5833546797442 430.6550088307197 570.0000226974496 427.6667274667258C605.4166907151549 424.6784461027319 619.583357922237 377.224538042509 655.0000259399424 376.0292254969114C690.4166939576477 374.8339129513139 722.2916951735825 412.3667268830771 740.0000291824352 421.9292272478575 " transform="rotate(92, 400, 400)"></path><path d="M81.250003039837 404.4219366629268C97.85156617313638 399.37921186118706 127.73437981307524 379.84332244407705 160.937506079674 380.21685761457627C194.14063234627275 380.5903927850755 207.4218828529122 407.5222785780704 240.62500911951096 406.2149054813231C273.8281353861097 404.9075323845758 287.10938589274923 372.6340936534418 320.312512159348 373.94146675018914C353.51563842594675 375.24883984693645 366.7968889325863 408.94171222596754 400.000015199185 412.49029634571025C433.20314146578374 416.038880465453 446.48439197242317 388.17315674621 479.6875182390219 390.97467052495426C512.8906445056207 393.7761843036985 526.1718950122602 428.73907626242703 559.3750212788589 425.93756248368277C592.5781475454577 423.1360487049385 605.8593980520972 378.6480098984795 639.062524318696 377.5274043869818C672.2656505852948 376.40679887548407 702.1484642252337 411.5938119365121 718.750027358533 420.5586560284938 " transform="rotate(86.25, 400, 400)"></path><path d="M102.5000028371812 404.1271429199035C117.99479509492728 399.4205997716131 145.88542115887023 381.1871029823105 176.8750056743624 381.53573580810973C207.86459018985457 381.88436863390905 220.2604239960514 407.0207953740376 251.25000851154357 405.8005804837401C282.23959302703577 404.5803655934426 294.6354268332326 374.4584894443842 325.6250113487248 375.6787043346817C356.614595864217 376.89891922497924 369.0104296704139 408.3456001120749 400.00001418590597 411.6576119571681C430.9895987013981 414.96962380226137 443.385432507595 388.96161499763457 474.3750170230872 391.5763611911292C505.36460153857934 394.1911073846239 517.7604353447762 426.8231398794371 548.7500198602684 424.20839368594244C579.7396043757606 421.5936474924478 592.1354381819574 380.07147793975275 623.1250226974496 379.02557946235487C654.1146072129418 377.979680984957 682.0052332768847 410.8208931752498 697.5000255346308 419.1880809944327 " transform="rotate(80.5, 400, 400)"></path><path d="M123.7500026345254 403.8323396401371C138.1380240167182 399.46197814529603 164.03646250466522 382.5308739838007 192.8125052690508 382.85460446490004C221.58854803343638 383.1783349459994 233.09896513919057 406.51930263326165 261.87500790357615 405.38624594941393C290.6510506679618 404.2531892655663 302.161467773716 376.2828756985835 330.9375105381016 377.41593238243115C359.7135533024872 378.54898906627886 371.2239704082415 407.74947846143914 400.000013172627 410.8249180318828C428.7760559370126 413.9003576023265 440.2864730427668 389.7500637123159 469.06251580715235 392.17804232056096C497.83855857153793 394.606020928806 509.3489756772922 424.907193959704 538.1250184416778 422.47921535145895C566.9010612060633 420.05123674321396 578.4114783118175 381.4949364442828 607.1875210762032 380.5237450009848C635.9635638405888 379.5525535576868 661.8620023285358 410.0479648772444 676.2500237107286 417.81749642362854 " transform="rotate(74.75, 400, 400)"></path><path d="M144.99998717308054 403.53754398976525C158.28123767972005 399.5033641483735 182.18748859167113 383.8746526146855 208.74998960495014 384.17348075108487C235.31249061822913 384.47230888748425 245.9374910235407 406.01781752188015 272.4999920368197 404.9719190444823C299.06249305009874 403.92602056708444 309.6874934554103 378.10726958217725 336.2499944686893 379.15316805957514C362.8124954819683 380.19906653697296 373.43749588727997 407.15336444019783 399.9999969005589 409.99223173599205C426.56249791383794 412.8310990317862 437.18749831914954 390.53852005639186 463.7499993324285 392.77973107938726C490.3125003457075 395.02094210238266 500.93750075101906 422.99125566936544 527.5000017642981 420.75004464637004C554.062502777577 418.50883362337464 564.6875031828887 382.9184025782074 591.2500041961677 382.02191816900927C617.8125052094467 381.1254337598111 641.7187561213979 409.2750442086335 655.0000066280373 416.44691948221885 " transform="rotate(69, 400, 400)"></path><path d="M166.24998697042474 403.242750246742C178.42446660151094 399.5447520587996 200.33852993746612 385.21843315291886 224.68748919963855 385.49235894461833C249.03644846181095 385.76628473631774 258.7760321666799 405.51633431784734 283.1249914288523 404.55759404689934C307.47395069102475 403.5988537759513 317.2135343958937 379.9316653731197 341.56249365806616 380.8904056440677C365.91145292023856 381.84914591501575 375.6510366251075 406.5572523263052 399.99999588727997 409.1595473474499C424.34895514945237 411.76184236859456 434.08853885432126 391.3269783078164 458.43749811649366 393.3814217455622C482.7864573786661 395.43586518330795 492.52604108353506 421.07531928637553 516.8750003457076 419.0208758486297C541.22395960788 416.96643241088395 550.9635433127489 384.3418706194807 575.3125025749214 383.52009324438234C599.6614618370938 382.69831586928404 621.5755251730488 408.5021254473712 633.7500048041352 415.0763444481578 " transform="rotate(63.25, 400, 400)"></path><path d="M187.49998676776892 402.94795650371873C198.56769552330184 399.58613996922566 218.4895712832611 386.5622136911523 240.62498879432695 386.81123713815174C262.76040630539273 387.06026058515124 271.6145733098191 405.01485111381453 293.74999082088493 404.1432690493163C315.88540833195077 403.2716869848181 324.7395753363771 381.7560611640621 346.87499284744297 382.6276432285603C369.0104103585088 383.49922529305854 377.86457736293517 405.9611402124126 399.99999487400095 408.3268629589078C422.1354123850668 410.6925857054029 430.9895793894931 392.1154365592409 453.12499690055887 393.98311241173707C475.26041441162477 395.8507882642333 484.11458141605107 419.15938290338556 506.2499989271169 417.2917070508894C528.3854164381828 415.4240311983932 537.239583442609 385.7653386607539 559.3750009536749 385.0182683197554C581.5104184647407 384.27119797875696 601.4322942247001 407.72920668610897 612.5000029802329 413.7057694140967 " transform="rotate(57.5, 400, 400)"></path><path d="M208.74998656511315 402.65315799232394C218.71092444509276 399.62752311128014 236.64061262905608 387.9059894610141 256.56248838901536 388.1301105633136C276.4843641489746 388.35423166561316 284.4531144529583 404.51336314141014 304.3749902129175 403.72893928336174C324.2968659728768 402.94451542531334 332.26561627686044 383.58045218663295 352.1874920368198 384.36487604468135C372.109367796779 385.14929990272975 380.0781181007627 405.3650233301484 399.99999386072193 407.494173801994C419.92186962068115 409.62332427383967 427.89061992466486 392.9038900422939 447.8124956846241 394.5847983095404C467.73437144458336 396.265706576787 475.70312174856707 417.24344175202407 495.6249975085263 415.56253348477753C515.5468732684856 413.88162521753094 523.5156235724693 387.18880193365555 543.4374993324286 386.51643862675695C563.3593750923878 385.8440753198583 581.2890632763512 406.95628315647514 591.2500011563307 412.33518961166413 " transform="rotate(51.75, 400, 400)"></path><path d="M230.00000162124638 402.3583709250209C238.85416862567274 399.6689176974264 254.79166923364014 389.24977667496773 272.50000324249277 389.4489954325673C290.2083372513455 389.6482141901669 297.2916708548865 404.01188661309754 315.00000486373915 403.314620961499C332.70833887259187 402.6173553099004 339.79167247613293 385.40485465329556 357.5000064849856 386.10212030489413C375.20834049383825 386.79938595649276 382.2916740973793 404.768917891976 400.00000810623203 406.6614960891721C417.70834211508463 408.55407428636823 424.7916757186257 393.6923549694386 442.50000972747836 395.18649565143556C460.208343736331 396.6806363334325 467.2916773398721 415.32751204475437 485.0000113487248 413.8333713627574C502.70834535757746 412.33923068076047 509.7916789611185 388.61227665064905 527.5000129699712 388.01462037785024C545.2083469788238 387.4169641050515 561.1458475867912 406.18337107093305 570.0000145912177 410.9646212533233 " transform="rotate(46, 400, 400)"></path><path d="M251.2500014185906 402.0635676452545C258.9973975474636 399.7102960711093 272.94271057943513 390.59354767645794 288.4375028371812 390.7678640893576C303.93229509492727 390.94218050225726 310.1302119980257 403.5103938723215 325.6250042557718 402.9002864271728C341.1197965135179 402.29017898202403 347.3177134166163 387.22924090749484 362.8125056743624 387.8393483526436C378.3072979321085 388.4494557977923 384.50521483520697 404.17279624134017 400.00000709295296 405.8288021638868C415.49479935069905 407.4848080864334 421.69271625379747 394.48080368412 437.18750851154357 395.78817678086733C452.68230076928967 397.09554987761464 458.8802176723881 413.4115661250213 474.3750099301342 412.104193028274C489.8698021878803 410.7968199315266 496.0677190909787 390.0357351551791 511.5625113487248 389.5127859164802C527.0573036064709 388.9898366777812 541.0026166384423 405.41044277292764 548.7500127673154 409.5940366825191 " transform="rotate(40.25, 400, 400)"></path><path d="M272.5000012159348 401.7687758095799C279.1406264692545 399.751685888884 291.0937519252301 391.93733012204 304.3750024318696 392.0867441902397C317.6562529385091 392.2361582584394 322.9687531411649 403.00891257563734 336.2500036478044 402.4859633369384C349.5312541544439 401.9630140982395 354.84375435709967 389.0536386057859 368.12500486373915 389.57658784448483C381.4062553703787 390.09953708318375 386.7187555730345 403.5766860347962 400.000006079674 404.9961196826933C413.2812565863135 406.4155533305904 418.5937567889693 395.26926384289317 431.8750072956088 396.3898693543909C445.1562578022483 397.51047486588857 450.4687580049041 411.49563164938 463.75000851154357 410.3750261378823C477.03125901818305 409.25442062638456 482.3437592208389 391.45920510380097 495.62500972747836 391.0109628992019C508.9062602341179 390.56272069460283 520.8593856900934 404.637525919014 527.5000109434131 408.2234635558067 " transform="rotate(34.5, 400, 400)"></path><path d="M293.750001013279 401.4739792055337C299.28385539104545 399.79307093828714 309.24479327102506 393.28110779925044 320.31250202655804 393.4056195227502C331.3802107820909 393.53013124624994 335.8072942843041 402.5074265105816 346.875003039837 402.0716354783325C357.9427117953699 401.63584444608335 362.3697952975831 390.87803153570536 373.437504053116 391.3138225679545C384.50521280864893 391.7496136002036 388.9322963108621 402.9805710598806 400.00000506639503 404.1634324331282C411.0677138219279 405.3462938063758 415.4947973241411 396.0577192332948 426.562506079674 396.9915571595429C437.6302148352069 397.92539508579097 442.0572983374201 409.5796924053671 453.12500709295296 408.645854479119C464.19271584848593 407.7120165528709 468.61979935069905 392.88267028405124 479.687508106232 392.509135113552C490.7552168617649 392.1355999430528 500.71615474174456 403.8646042967288 506.250009119511 406.8528856607227 " transform="rotate(28.75, 400, 400)"></path><path d="M315.0000008106232 401.1791830783247C319.42708431283637 399.8344564645274 327.3958346168201 394.6248859532981 336.2500016212464 394.7244953320979C345.10416862567274 394.82410471089764 348.6458354274432 402.005940922363 357.5000024318696 401.65730809656367C366.35416943629593 401.3086752707644 369.89583623806647 392.702424942462 378.75000324249277 393.0510577682613C387.6041702469191 393.3996905940606 391.14583704868966 402.3844565618022 400.000004053116 403.3307456604003C408.8541710575423 404.2770347589983 412.39583785931285 396.8461751005335 421.25000486373915 397.593245441532C430.1041718681655 398.34031578253047 433.64583866993604 407.6637536381914 442.5000056743624 406.91668329719295C451.3541726787887 406.16961295619444 454.8958394805593 394.30613594113873 463.7500064849856 394.00730780473936C472.6041734894119 393.7084796683399 480.5729237933956 403.09168315128073 485.00000729560884 405.4823082424759 " transform="rotate(23, 400, 400)"></path><path d="M336.2500006079674 400.8843859974413C339.5703132346273 399.8758410370934 345.54687596261505 395.96866315367134 352.1875012159348 396.0433701877712C358.8281264692546 396.11807722187103 361.4843765705824 401.50445438047007 368.1250018239022 401.2429797611206C374.76562707722195 400.9815051417711 377.42187717854983 394.5268173955443 384.0625024318696 394.7882920148938C390.7031276851893 395.04976663424327 393.35937778651726 401.7883411100495 400.000003039837 402.498057933998C406.64062829315674 403.20777475794654 409.2968783944847 397.634630014098 415.9375036478044 398.1949327698468C422.57812890112416 398.75523552559565 425.23437900245204 405.7478139173414 431.8750042557718 405.1875111615925C438.5156295090915 404.62720840584365 441.1718796104194 395.72960064455185 447.81250486373915 395.5054795422523C454.45313011705895 395.2813584399528 460.4296928450467 402.3187610521584 463.7500054717066 404.1117298705547 " transform="rotate(17.25, 400, 400)"></path><path d="M357.5000004053116 400.58959225441805C359.71354215641816 399.91722894751945 363.69791730841 397.3124436919048 368.1250008106232 397.36224838130465C372.55208431283637 397.4120530707046 374.3229177137216 401.0029711764372 378.7500012159348 400.8286547635376C383.17708471814797 400.65433835063794 384.94791811903326 396.35121318648675 389.3750016212464 396.5255295993864C393.80208512345956 396.699846012286 395.5729185243448 401.1922289961568 400.00000202655804 401.66537354545585C404.42708552877116 402.1385180947549 406.19791892965645 398.4230882655225 410.6250024318696 398.7966234360217C415.05208593408275 399.170158606521 416.822919334968 403.8318775343514 421.2500028371812 403.4583423638522C425.67708633939435 403.08480719335296 427.44791974027964 397.1530686858251 431.87500324249277 397.0036546176254C436.30208674470595 396.8542405494257 440.2864618966978 401.54584229089613 442.5000036478044 402.74115483649365 " transform="rotate(11.5, 400, 400)"></path><path d="M378.75000020265577 400.2947966040462C379.8567710782091 399.9586149505969 381.84895865420503 398.6562223227895 384.0625004053116 398.6811246674895C386.27604215641816 398.70602701218945 387.1614588568608 400.50148606505576 389.3750006079674 400.41432785860593C391.588542359074 400.3271696521561 392.47395905951663 398.1756070700805 394.6875008106232 398.26276527653033C396.9010425617298 398.34992348298016 397.7864592621724 400.59611497491557 400.000001013279 400.8326872495651C402.2135427643856 401.0692595242146 403.0989594648282 399.21154460959843 405.3125012159348 399.398312194848C407.52604296704135 399.58507978009766 408.411459667484 401.91593924401286 410.6250014185906 401.7291716587633C412.8385431696972 401.54240407351364 413.7239598701398 398.5765348197497 415.9375016212464 398.5018277856499C418.151043372353 398.42712075155004 420.1432309483489 400.7729216222852 421.2500018239022 401.370577895084 " transform="rotate(5.75, 400, 400)"></path></g></svg>